<?xml version="1.0" encoding="utf-8"?>
<!-- Generator: Adobe Illustrator 22.1.0, SVG Export Plug-In . SVG Version: 6.00 Build 0)  -->
<svg version="1.1" xmlns="http://www.w3.org/2000/svg" xmlns:xlink="http://www.w3.org/1999/xlink" x="0px" y="0px"
	 viewBox="0 0 447.4 110.6" style="enable-background:new 0 0 447.4 110.6;" xml:space="preserve">
<style type="text/css">
	.st0{fill:#0071BA;}
	.st1{fill:#0071CE;}
	.st2{display:none;}
	.st3{display:inline;fill:none;}
	.st4{display:inline;fill:#0172BA;}
	.st5{font-family:'MyriadPro-Bold';}
	.st6{font-size:24px;}
	.st7{letter-spacing:4.8;}
</style>
<g id="Layer_1_xA0_Image_1_">
</g>
<g id="CYBER">
	<path class="st0" d="M411.9,46.3c-2.4,0.1-4.7,0.4-6.9,0.9l7.1-15.6l7.2,15.6C417,46.6,414.5,46.2,411.9,46.3L411.9,46.3z M414.3,0
		h-4.4L377,73.1h16.2l5.6-12.3c4.8-0.9,9.3-1.7,13.3-1.7c3.7,0,8.5,0.9,13.4,1.9c0,0,0.1,0,0.1,0l5.6,12.1h16.2L414.3,0L414.3,0z"/>
	<path class="st0" d="M13.2,60.8V43.2h10.6c4.9,0,9,4,9,8.9c0,4.9-4.1,8.8-9,8.8H13.2L13.2,60.8z M12.9,12.5h6.4
		c4.1,0,8.4,3.1,8.4,8.2c0,5.1-4.4,8.4-8.4,8.4h-6.4V12.5L12.9,12.5z M46.2,51.1c0-7.1-3.3-13.4-8.7-17.5c2.4-3.4,3.8-7.5,3.8-12
		c0-11.8-9.6-21.4-21.4-21.4H0v73h24.1C36.3,73.2,46.2,63.4,46.2,51.1L46.2,51.1z"/>
	<path class="st0" d="M212.7,58.7h-6V14.8h6c12.1,0,21.9,9.8,21.9,21.9C234.6,48.8,224.8,58.7,212.7,58.7L212.7,58.7z M135,67.5
		V30.6l30.6,31.8C155.4,63.8,145.2,65.5,135,67.5L135,67.5z M82.4,46.3c-2.4,0.1-4.7,0.4-6.9,0.9l7.1-15.6l7.2,15.6
		C87.5,46.6,85,46.2,82.4,46.3L82.4,46.3z M338.7,14.7h12.9c4.1,0,7.3,3.3,7.3,7.4c0,4.1-3.2,7.3-7.3,7.3h-12.9V14.7L338.7,14.7z
		 M374.6,88.8c-8.4-3.1-16.8-5.9-25.3-8.6c-3.5-1.1-7-2.1-10.6-3.2V44h7.3l13.7,29.3h15.5L360.6,42c7.6-3.4,12.8-11,12.8-19.9
		c0-12.1-9.8-22-21.9-22h-27.5V73c-0.2-0.1-0.4-0.1-0.6-0.2c-6.5-1.7-13.1-3.2-19.8-4.6c6.4-5.2,10.6-13.1,10.6-22l-0.1-46.1h-14.6
		l0.1,46.2c-0.1,3.6-1.5,7-4.1,9.6c-2.6,2.6-5.9,4-9.6,4c-3.6,0-7.1-1.4-9.7-4c-2.6-2.6-4.1-6-4.1-9.7V0.2h-14.6v46.2
		c0,5.6,1.7,10.8,4.5,15.1c-7-0.8-14.1-1.4-21.1-1.9c2.2-2.6,3.9-5.5,5.2-8.7c2-4.5,2.9-9.3,2.9-14.3c0-4.9-0.9-9.7-2.9-14.2
		c-1.8-4.4-4.4-8.2-7.8-11.7c-3.3-3.3-7.2-5.9-11.6-7.8c-4.5-1.9-9.3-2.8-14.2-2.8h-20.6v59.6c-4,0.3-8.1,0.6-12.1,1V0.2h-14.6V41
		L125,0.2h-4.6v70.5c-1.1,0.3-2.2,0.5-3.3,0.8c-0.1,0-0.1,0-0.2,0L84.8,0h-4.4L47.5,73.1h16.2l5.6-12.3c4.8-0.9,9.3-1.7,13.3-1.7
		C86.3,59,91,60,96,61c0,0,0.1,0,0.1,0l6.4,14.3c-14.5,4-28.7,8.6-42.7,13.8c-8.3,3.2-16.6,6.4-24.7,10c-8.1,3.6-16.2,7.4-24,11.6
		c16.7-6.2,33.5-11.6,50.5-16.4c8.5-2.4,17-4.7,25.6-6.8c8.6-2.1,17.1-4.1,25.7-5.8c20.6-4.2,41.5-7.5,62.4-9.4
		c1.6-0.1,3.2-0.3,4.8-0.4c4-0.3,8.1-0.6,12.1-0.9c8.4-0.5,16.7-0.8,25.1-0.8c3.2,0,6.4,0.1,9.6,0.1c31.7,0.7,63.4,4.8,94.7,11.2
		c8.6,1.7,17.2,3.8,25.8,5.8c8.6,2,17.1,4.3,25.6,6.7c17,4.8,33.8,10.2,50.5,16.3c-7.8-4.3-15.9-8-24-11.6
		C391.2,95.2,382.9,91.9,374.6,88.8L374.6,88.8z"/>
	<path class="st1" d="M439.1,4.9h0.5c0.6,0,1.1-0.2,1.1-0.7c0-0.4-0.3-0.7-1-0.7c-0.3,0-0.5,0-0.6,0.1V4.9L439.1,4.9z M439,7.7h-1.1
		V2.9c0.4-0.1,1-0.1,1.8-0.1c0.9,0,1.3,0.1,1.7,0.4c0.3,0.2,0.5,0.6,0.5,1.1c0,0.5-0.4,0.9-1,1.1v0.1c0.5,0.2,0.7,0.5,0.9,1.2
		c0.1,0.7,0.2,1,0.4,1.2h-1.2c-0.1-0.2-0.2-0.6-0.4-1.2c-0.1-0.5-0.4-0.8-1-0.8H439V7.7L439,7.7z M436.1,5.1c0,2.1,1.6,3.8,3.7,3.8
		c2.1,0,3.6-1.7,3.6-3.8c0-2.1-1.5-3.9-3.7-3.9C437.7,1.3,436.1,3,436.1,5.1L436.1,5.1z M444.7,5.1c0,2.7-2.1,4.8-4.9,4.8
		c-2.7,0-4.9-2.1-4.9-4.8c0-2.7,2.2-4.8,4.9-4.8C442.6,0.4,444.7,2.5,444.7,5.1L444.7,5.1z"/>
	<g>
		<path class="st0" d="M175.6,96.2c-0.8,0.3-2.7,0.7-5.2,0.7c-7,0-10.6-3.5-10.6-8.1c0-5.5,4.9-8.6,11-8.6c2.4,0,4.2,0.4,5,0.7
			l-0.9,2.9c-0.9-0.3-2.2-0.6-3.8-0.6c-3.6,0-6.4,1.8-6.4,5.4c0,3.2,2.4,5.3,6.5,5.3c1.4,0,2.9-0.2,3.8-0.5L175.6,96.2z"/>
		<path class="st0" d="M189.5,96.7v-6.6l-6.4-9.6h5.2l2.1,3.9c0.6,1.2,1.1,2,1.6,3.1h0.1c0.4-1,0.9-1.9,1.5-3.1l2-3.9h5.1L194,90
			v6.7H189.5z"/>
		<path class="st0" d="M208.3,80.7c1.2-0.2,3.6-0.3,5.9-0.3c2.8,0,4.5,0.2,6,0.9c1.4,0.6,2.4,1.7,2.4,3.2c0,1.4-1.1,2.8-3.3,3.5v0
			c2.3,0.5,4,1.9,4,4c0,1.5-0.8,2.6-2.1,3.4c-1.5,0.9-3.9,1.5-7.9,1.5c-2.3,0-3.9-0.1-4.9-0.2V80.7z M212.9,86.9h1.5
			c2.4,0,3.7-0.8,3.7-2c0-1.2-1.2-1.9-3.2-1.9c-1,0-1.6,0-1.9,0.1V86.9z M212.9,94.1c0.5,0,1,0,1.8,0c2.1,0,3.9-0.6,3.9-2.3
			c0-1.6-1.8-2.3-4.1-2.3h-1.6V94.1z"/>
		<path class="st0" d="M244.5,89.9H237v3.8h8.3v3h-12.9V80.5h12.5v3H237v3.4h7.4V89.9z"/>
		<path class="st0" d="M254.5,80.7c1.5-0.2,3.7-0.3,6.1-0.3c3,0,5.1,0.4,6.5,1.3c1.2,0.8,1.9,1.9,1.9,3.4c0,2.1-1.8,3.5-3.6,4v0.1
			c1.4,0.5,2.2,1.5,2.7,3c0.6,1.8,1.3,3.9,1.6,4.6h-4.7c-0.3-0.5-0.8-1.8-1.4-3.8c-0.5-2-1.4-2.6-3.3-2.6H259v6.4h-4.5V80.7z
			 M259,87.7h1.8c2.3,0,3.6-0.9,3.6-2.3c0-1.5-1.3-2.2-3.4-2.3c-1.1,0-1.7,0.1-2.1,0.1V87.7z"/>
	</g>
</g>
<g id="CYBER_copy" class="st2">
	<rect x="88.4" y="79.7" class="st3" width="252.2" height="63.7"/>
	<text transform="matrix(1.25 0 0 1 158.5784 96.7048)" class="st4 st5 st6 st7">CYBER</text>
</g>
</svg>
