<svg xmlns="http://www.w3.org/2000/svg" id="Layer_1" data-name="Layer 1" viewBox="0 0 288 72">
    <defs>
        <style>
            .cls-1{
                fill:#FFFF;
            }
        </style>
    </defs>
    <title>BanduraCyberTIG_Blue</title>
    <g id="CYBER">
        <path class="cls-1" d="M3.09,9.54v53.7H284.14V9.54ZM172,60.14H6.53v-47H172Zm39.78-35.45h-9.68l-5.59,29.48h-7.75l5.6-29.48h-9.58l1.35-6.77H213.1Zm9.57,29.48h-7.74l6.88-36.25h7.75ZM249.92,48a10.47,10.47,0,0,0,4-.64l1.45-7.64H249.7l1.24-6.19h13.18l-3.66,19a38.79,38.79,0,0,1-11.72,2c-5,0-9.09-1.29-12.05-4-2.91-2.52-4.57-6.56-4.57-11.18a21.36,21.36,0,0,1,7.36-16.57,25,25,0,0,1,16-5.27,24.27,24.27,0,0,1,9.58,1.61l-2.32,6.51a19.5,19.5,0,0,0-7.69-1.45,14.82,14.82,0,0,0-9.2,2.9,14.81,14.81,0,0,0-5.27,11.73C240.61,44.92,244.22,48,249.92,48Zm20.65-27.93h-.89v2.31h-.93V20.05h-.86v-.76h2.68Zm3.29,2.31L273.8,21c0-.35,0-.73,0-1.2h0c-.09.42-.19.85-.27,1.2l-.32,1.28h-.88L272,21c-.06-.29-.13-.78-.21-1.18h0c0,.42,0,.84,0,1.19l-.07,1.35h-.88l.19-3.07h1.44l.2.76c.06.23.1.48.18,1h0c.08-.37.15-.67.23-1l.22-.76h1.34l.17,3.07Z"/>
        <path class="cls-1" d="M155.22,35.42a11.48,11.48,0,0,0-2.38.32l2.46-5.37,2.47,5.36a9.53,9.53,0,0,0-2.55-.31Zm.83-15.94h-1.5L143.2,44.66h5.56l1.94-4.24a26.86,26.86,0,0,1,4.59-.59,24.36,24.36,0,0,1,4.62.66H160l1.91,4.16h5.57L156.05,19.48Z"/>
        <path class="cls-1" d="M17.85,40.44V34.37h3.67a3.08,3.08,0,0,1,3.08,3.05,3,3,0,0,1-3.08,3Zm-.11-16.66h2.19a2.86,2.86,0,0,1,2.91,2.83,2.94,2.94,0,0,1-2.91,2.91H17.74V23.78ZM29.2,37.1a7.57,7.57,0,0,0-3-6,7.13,7.13,0,0,0,1.29-4.13,7.37,7.37,0,0,0-7.36-7.37H13.29V44.71h8.3A7.59,7.59,0,0,0,29.2,37.1Z"/>
        <path class="cls-1" d="M86.59,39.69H84.5V24.57h2.09a7.56,7.56,0,0,1,0,15.12ZM59.82,42.75V30L70.37,41q-5.31.71-10.55,1.77ZM41.67,35.42a11.48,11.48,0,0,0-2.38.32l2.46-5.37,2.47,5.36a9.53,9.53,0,0,0-2.55-.31ZM130,24.53h4.45A2.54,2.54,0,0,1,137,27.08a2.5,2.5,0,0,1-2.52,2.51H130V24.53Zm12.37,25.53q-4.32-1.59-8.72-3c-1.21-.38-2.43-.74-3.65-1.09V34.62h2.51l4.71,10.09h5.35l-5-10.77A7.51,7.51,0,0,0,142,27.08a7.58,7.58,0,0,0-7.55-7.58H125V44.63l-.2-.05q-3.39-.87-6.81-1.59a9.72,9.72,0,0,0,3.64-7.58l0-15.87h-5l0,15.91a4.77,4.77,0,0,1-1.4,3.3,4.59,4.59,0,0,1-3.3,1.37,4.65,4.65,0,0,1-3.34-1.37,4.7,4.7,0,0,1-1.41-3.34V19.54h-5V35.45a9.67,9.67,0,0,0,1.56,5.21c-2.42-.27-4.84-.49-7.28-.64a11.2,11.2,0,0,0,1.79-3,12.42,12.42,0,0,0,0-9.81,12.19,12.19,0,0,0-2.69-4,12.41,12.41,0,0,0-8.87-3.66H79.47V40.07c-1.39.09-2.78.21-4.17.34V19.54h-5V33.62L56.37,19.54H54.79V43.85l-1.15.27h-.06L42.51,19.48H41L29.65,44.66h5.57l1.94-4.24a26.75,26.75,0,0,1,4.58-.59,24.36,24.36,0,0,1,4.62.66h0l2.2,4.92q-7.47,2-14.73,4.74c-2.87,1.09-5.72,2.21-8.52,3.46s-5.59,2.53-8.27,4Q25.7,54.44,34.48,52c2.93-.84,5.86-1.63,8.81-2.34s5.9-1.41,8.87-2a196,196,0,0,1,21.5-3.24l1.64-.14q2.08-.18,4.17-.3,4.32-.26,8.64-.27c1.11,0,2.22,0,3.33,0a187.58,187.58,0,0,1,32.63,3.85c3,.59,5.92,1.29,8.87,2s5.89,1.49,8.81,2.32q8.79,2.46,17.4,5.62c-2.68-1.47-5.46-2.76-8.27-4s-5.66-2.36-8.53-3.45Z"/>
        <path class="cls-1" d="M164.58,21.18h.18c.21,0,.38-.07.38-.24s-.11-.25-.35-.25l-.21,0v.47Zm0,.93h-.39V20.46a3.44,3.44,0,0,1,.64-.05,1,1,0,0,1,.57.12.48.48,0,0,1,.16.37.42.42,0,0,1-.34.38v0a.48.48,0,0,1,.3.4,1.25,1.25,0,0,0,.12.41h-.41a1.4,1.4,0,0,1-.13-.4c0-.18-.13-.26-.34-.26h-.18v.66Zm-1-.86a1.28,1.28,0,0,0,1.29,1.32,1.32,1.32,0,0,0,0-2.64,1.28,1.28,0,0,0-1.28,1.32Zm3,0a1.7,1.7,0,1,1-1.69-1.65,1.66,1.66,0,0,1,1.69,1.65Z"/>
        <path class="cls-1" d="M74.81,54a5.63,5.63,0,0,1-1.84.25c-2.49,0-3.77-1.24-3.77-2.87,0-2,1.75-3.06,3.93-3.06a5.15,5.15,0,0,1,1.77.26l-.33,1a4.33,4.33,0,0,0-1.37-.21c-1.29,0-2.29.62-2.29,1.9s.85,1.88,2.3,1.88A5.12,5.12,0,0,0,74.57,53Z"/>
        <path class="cls-1" d="M79.75,54.14V51.78l-2.27-3.39h1.85l.74,1.38c.22.42.37.72.55,1.1h0c.16-.36.33-.69.55-1.1l.72-1.38h1.82l-2.36,3.35v2.4Z"/>
        <path class="cls-1" d="M86.45,48.46a17.77,17.77,0,0,1,2.1-.12,4.76,4.76,0,0,1,2.12.33,1.24,1.24,0,0,1,.87,1.12c0,.52-.38,1-1.19,1.23v0c.83.18,1.43.67,1.43,1.42A1.46,1.46,0,0,1,91,53.68a5.5,5.5,0,0,1-2.83.52,16.18,16.18,0,0,1-1.76-.09Zm1.61,2.2h.54c.85,0,1.31-.28,1.31-.7s-.42-.67-1.15-.67a4.77,4.77,0,0,0-.7,0Zm0,2.55a5.46,5.46,0,0,0,.63,0c.74,0,1.39-.22,1.39-.83s-.65-.81-1.46-.81h-.56Z"/>
        <path class="cls-1" d="M99.3,51.7H96.65v1.37h3v1.07H95V48.39h4.44v1.06H96.65v1.2H99.3Z"/>
        <path class="cls-1" d="M102.85,48.46a19.55,19.55,0,0,1,2.16-.12,4.33,4.33,0,0,1,2.33.46A1.36,1.36,0,0,1,108,50a1.62,1.62,0,0,1-1.27,1.42v0a1.52,1.52,0,0,1,1,1.08,14.73,14.73,0,0,0,.59,1.62h-1.67a6.26,6.26,0,0,1-.5-1.34c-.19-.72-.5-.92-1.16-.92h-.49v2.26h-1.61Zm1.61,2.48h.64c.81,0,1.29-.33,1.29-.83s-.45-.79-1.2-.8a4.75,4.75,0,0,0-.73,0Z"/>
    </g>
</svg>